<svg xmlns="http://www.w3.org/2000/svg" viewBox="0 0 120 120" role="img" aria-label="RYUGE COFFEE mark">
  <rect width="120" height="120" fill="#f8f5ee"/>
  <circle cx="60" cy="60" r="45" fill="none" stroke="#2a2018" stroke-width="1.6"/>
  <circle cx="60" cy="60" r="34" fill="none" stroke="#7f6347" stroke-width="0.8" opacity="0.55"/>
  <path d="M38 57c5.7-11.5 15.1-17.2 28.2-17.2 8.2 0 14.1 2.5 17.8 7.4 2.7 3.7 3 7.8.9 12.5-1.9 4-5.4 6.8-10.5 8.4l11.9 15.7H76.2L65.8 69.3h-9.7v14.5h-8.5V47.4h20.1c4.3 0 7.5 1.1 9.6 3.3 2 2.1 2.1 4.6.3 7.5-1.8 2.8-5.2 4.3-10.1 4.3H56.1" fill="none" stroke="#2a2018" stroke-width="2.2" stroke-linecap="round" stroke-linejoin="round"/>
  <path d="M33 78c11 6.5 23.4 8 37.1 4.5" fill="none" stroke="#7f6347" stroke-width="1.4" stroke-linecap="round"/>
</svg>
